<?xml version="1.0" encoding="UTF-8" standalone="no"?>
<!-- Created with Inkscape (http://www.inkscape.org/) -->

<svg
   xmlns:dc="http://purl.org/dc/elements/1.1/"
   xmlns:cc="http://creativecommons.org/ns#"
   xmlns:rdf="http://www.w3.org/1999/02/22-rdf-syntax-ns#"
   xmlns:svg="http://www.w3.org/2000/svg"
   xmlns="http://www.w3.org/2000/svg"
   xmlns:sodipodi="http://sodipodi.sourceforge.net/DTD/sodipodi-0.dtd"
   xmlns:inkscape="http://www.inkscape.org/namespaces/inkscape"
   width="139.20349mm"
   height="140.79332mm"
   viewBox="0 0 493.24072 498.87397"
   id="svg2"
   version="1.1"
   inkscape:version="0.91 r13725"
   sodipodi:docname="rot2.svg">
  <defs
     id="defs4">
    <marker
       inkscape:stockid="TriangleOutS"
       orient="auto"
       refY="0"
       refX="0"
       id="TriangleOutS"
       style="overflow:visible"
       inkscape:isstock="true">
      <path
         id="path4301"
         d="m 5.77,0 -8.65,5 0,-10 8.65,5 z"
         style="fill:#0b2abb;fill-opacity:1;fill-rule:evenodd;stroke:#0b2abb;stroke-width:1pt;stroke-opacity:1"
         transform="scale(0.2,0.2)"
         inkscape:connector-curvature="0" />
    </marker>
    <marker
       inkscape:stockid="TriangleInS"
       orient="auto"
       refY="0"
       refX="0"
       id="TriangleInS"
       style="overflow:visible"
       inkscape:isstock="true">
      <path
         id="path4292"
         d="m 5.77,0 -8.65,5 0,-10 8.65,5 z"
         style="fill:#0b2abb;fill-opacity:1;fill-rule:evenodd;stroke:#0b2abb;stroke-width:1pt;stroke-opacity:1"
         transform="scale(-0.2,-0.2)"
         inkscape:connector-curvature="0" />
    </marker>
    <marker
       inkscape:stockid="TriangleInM"
       orient="auto"
       refY="0"
       refX="0"
       id="TriangleInM"
       style="overflow:visible"
       inkscape:isstock="true">
      <path
         id="path4289"
         d="m 5.77,0 -8.65,5 0,-10 8.65,5 z"
         style="fill:#e7e7e7;fill-opacity:0.94117647;fill-rule:evenodd;stroke:#e7e7e7;stroke-width:1pt;stroke-opacity:0.94117647"
         transform="scale(-0.4,-0.4)"
         inkscape:connector-curvature="0" />
    </marker>
    <marker
       inkscape:stockid="TriangleOutM"
       orient="auto"
       refY="0"
       refX="0"
       id="TriangleOutM"
       style="overflow:visible"
       inkscape:isstock="true">
      <path
         id="path4298"
         d="m 5.77,0 -8.65,5 0,-10 8.65,5 z"
         style="fill:#e7e7e7;fill-opacity:0.94117647;fill-rule:evenodd;stroke:#e7e7e7;stroke-width:1pt;stroke-opacity:0.94117647"
         transform="scale(0.4,0.4)"
         inkscape:connector-curvature="0" />
    </marker>
    <marker
       inkscape:stockid="Arrow1Mend"
       orient="auto"
       refY="0"
       refX="0"
       id="Arrow1Mend"
       style="overflow:visible"
       inkscape:isstock="true">
      <path
         id="path4162"
         d="M 0,0 5,-5 -12.5,0 5,5 0,0 Z"
         style="fill:#0b2abb;fill-opacity:1;fill-rule:evenodd;stroke:#0b2abb;stroke-width:1pt;stroke-opacity:1"
         transform="matrix(-0.4,0,0,-0.4,-4,0)"
         inkscape:connector-curvature="0" />
    </marker>
    <marker
       inkscape:stockid="Arrow1Mstart"
       orient="auto"
       refY="0"
       refX="0"
       id="Arrow1Mstart"
       style="overflow:visible"
       inkscape:isstock="true">
      <path
         id="path4159"
         d="M 0,0 5,-5 -12.5,0 5,5 0,0 Z"
         style="fill:#0b2abb;fill-opacity:1;fill-rule:evenodd;stroke:#0b2abb;stroke-width:1pt;stroke-opacity:1"
         transform="matrix(0.4,0,0,0.4,4,0)"
         inkscape:connector-curvature="0" />
    </marker>
    <marker
       inkscape:stockid="DotM"
       orient="auto"
       refY="0"
       refX="0"
       id="DotM"
       style="overflow:visible"
       inkscape:isstock="true">
      <path
         id="path4217"
         d="m -2.5,-1 c 0,2.76 -2.24,5 -5,5 -2.76,0 -5,-2.24 -5,-5 0,-2.76 2.24,-5 5,-5 2.76,0 5,2.24 5,5 z"
         style="fill:#4566ff;fill-opacity:1;fill-rule:evenodd;stroke:#000000;stroke-width:1pt;stroke-opacity:1"
         transform="matrix(0.4,0,0,0.4,2.96,0.4)"
         inkscape:connector-curvature="0" />
    </marker>
    <marker
       inkscape:stockid="Arrow2Lend"
       orient="auto"
       refY="0"
       refX="0"
       id="Arrow2Lend"
       style="overflow:visible"
       inkscape:isstock="true">
      <path
         id="path4174"
         style="fill:#000000;fill-opacity:1;fill-rule:evenodd;stroke:#000000;stroke-width:0.625;stroke-linejoin:round;stroke-opacity:1"
         d="M 8.7185878,4.0337352 -2.2072895,0.01601326 8.7185884,-4.0017078 c -1.7454984,2.3720609 -1.7354408,5.6174519 -6e-7,8.035443 z"
         transform="matrix(-1.1,0,0,-1.1,-1.1,0)"
         inkscape:connector-curvature="0" />
    </marker>
    <marker
       inkscape:stockid="Arrow2Lstart"
       orient="auto"
       refY="0"
       refX="0"
       id="Arrow2Lstart"
       style="overflow:visible"
       inkscape:isstock="true">
      <path
         id="path4171"
         style="fill:#000000;fill-opacity:1;fill-rule:evenodd;stroke:#000000;stroke-width:0.625;stroke-linejoin:round;stroke-opacity:1"
         d="M 8.7185878,4.0337352 -2.2072895,0.01601326 8.7185884,-4.0017078 c -1.7454984,2.3720609 -1.7354408,5.6174519 -6e-7,8.035443 z"
         transform="matrix(1.1,0,0,1.1,1.1,0)"
         inkscape:connector-curvature="0" />
    </marker>
    <marker
       inkscape:stockid="Arrow1Lstart"
       orient="auto"
       refY="0"
       refX="0"
       id="Arrow1Lstart"
       style="overflow:visible"
       inkscape:isstock="true">
      <path
         id="path4153"
         d="M 0,0 5,-5 -12.5,0 5,5 0,0 Z"
         style="fill:#000000;fill-opacity:1;fill-rule:evenodd;stroke:#000000;stroke-width:1pt;stroke-opacity:1"
         transform="matrix(0.8,0,0,0.8,10,0)"
         inkscape:connector-curvature="0" />
    </marker>
    <marker
       inkscape:stockid="TriangleInS"
       orient="auto"
       refY="0"
       refX="0"
       id="TriangleInS-9"
       style="overflow:visible"
       inkscape:isstock="true">
      <path
         inkscape:connector-curvature="0"
         id="path4292-8"
         d="m 5.77,0 -8.65,5 0,-10 8.65,5 z"
         style="fill:#0b2abb;fill-opacity:1;fill-rule:evenodd;stroke:#0b2abb;stroke-width:1pt;stroke-opacity:1"
         transform="scale(-0.2,-0.2)" />
    </marker>
    <marker
       inkscape:stockid="TriangleOutS"
       orient="auto"
       refY="0"
       refX="0"
       id="TriangleOutS-8"
       style="overflow:visible"
       inkscape:isstock="true">
      <path
         inkscape:connector-curvature="0"
         id="path4301-0"
         d="m 5.77,0 -8.65,5 0,-10 8.65,5 z"
         style="fill:#0b2abb;fill-opacity:1;fill-rule:evenodd;stroke:#0b2abb;stroke-width:1pt;stroke-opacity:1"
         transform="scale(0.2,0.2)" />
    </marker>
  </defs>
  <sodipodi:namedview
     id="base"
     pagecolor="#ffffff"
     bordercolor="#666666"
     borderopacity="1.0"
     inkscape:pageopacity="0.0"
     inkscape:pageshadow="2"
     inkscape:zoom="1.5266878"
     inkscape:cx="101.13926"
     inkscape:cy="214.93527"
     inkscape:document-units="px"
     inkscape:current-layer="layer1"
     showgrid="false"
     inkscape:window-width="1920"
     inkscape:window-height="1011"
     inkscape:window-x="0"
     inkscape:window-y="40"
     inkscape:window-maximized="1"
     fit-margin-top="0"
     fit-margin-left="0"
     fit-margin-right="0"
     fit-margin-bottom="0" />
  <metadata
     id="metadata7">
    <rdf:RDF>
      <cc:Work
         rdf:about="">
        <dc:format>image/svg+xml</dc:format>
        <dc:type
           rdf:resource="http://purl.org/dc/dcmitype/StillImage" />
        <dc:title></dc:title>
      </cc:Work>
    </rdf:RDF>
  </metadata>
  <g
     inkscape:label="Layer 1"
     inkscape:groupmode="layer"
     id="layer1"
     transform="translate(-133.68281,-121.23693)">
    <path
       style="fill:#4566ff;fill-opacity:1;fill-rule:evenodd;stroke:#000000;stroke-width:2.77183199;stroke-linecap:butt;stroke-linejoin:miter;stroke-miterlimit:4;stroke-dasharray:8.31549589, 8.31549589;stroke-dashoffset:0;stroke-opacity:1;marker-end:url(#DotM)"
       d="M 216.48799,544.51489 398.8939,357.42038"
       id="path23021"
       inkscape:connector-curvature="0"
       sodipodi:nodetypes="cc"
       inkscape:export-filename="/home/fabio/Dropbox/Gang of for/IUM/Sketch Hands/Two fingers hand rotation.png"
       inkscape:export-xdpi="300"
       inkscape:export-ydpi="300" />
    <path
       style="opacity:0.85;fill:#ffffff;fill-opacity:1;fill-rule:evenodd;stroke:#000000;stroke-width:5;stroke-linecap:round;stroke-linejoin:round;stroke-miterlimit:4;stroke-dasharray:none;stroke-opacity:1"
       d="m 136.21569,520.24636 c 30.30762,-12.64111 45.25175,-50.29838 58.33375,-113.20376 20.28719,-56.26461 15.28349,-60.6091 51.90519,-67.08465 l -7.00544,7.70483 c 19.45878,-28.29073 56.84547,-15.02748 55.88252,-13.85433 -1.94197,2.3659 -6.8216,7.07486 -10.34154,17.71419 20.04288,-42.50349 74.43384,-30.37804 80.72554,-22.41374 -12.79025,14.21656 -6.89559,8.25269 -14.24621,22.16864 4.59382,-6.43509 39.9018,-69.57426 96.38155,-100.36925 14.85461,-7.78672 23.81354,-11.84187 62.70111,-24.41102 19.21393,-2.87755 25.54792,14.42519 12.85714,25.00001 -99.89961,61.90229 -118.6769,152.8312 -123.4699,224.65771 85.00381,-3.25948 52.21111,9.40505 108.57143,-42.85714 8.61058,-8.90801 27.35337,-8.44423 21.42857,14.28571 -12.24233,25.55005 -27.21097,59.56067 -46.42857,67.14286 -78.10452,18.46568 -143.1225,67.4504 -172.85715,102.85714"
       id="path3347-4"
       inkscape:connector-curvature="0"
       sodipodi:nodetypes="ccccsccccccccccc"
       inkscape:export-filename="/home/fabio/Dropbox/Gang of for/IUM/Sketch Hands/Two fingers hand rotation.png"
       inkscape:export-xdpi="300"
       inkscape:export-ydpi="300" />
    <circle
       style="opacity:0.85;fill:none;fill-opacity:1;stroke:#0b2abb;stroke-width:12.56900024;stroke-linecap:butt;stroke-linejoin:miter;stroke-miterlimit:4;stroke-dasharray:none;stroke-dashoffset:0;stroke-opacity:1"
       id="path44393"
       cx="0"
       cy="0"
       r="0"
       inkscape:export-filename="/home/fabio/Dropbox/Gang of for/IUM/Sketch Hands/Two fingers hand rotation.png"
       inkscape:export-xdpi="300"
       inkscape:export-ydpi="300" />
    <path
       style="opacity:0.85;fill:none;stroke:#e7e7e7;stroke-width:11.86826897;stroke-linecap:butt;stroke-linejoin:miter;stroke-miterlimit:4;stroke-dasharray:none;stroke-dashoffset:0;stroke-opacity:0.94117647;marker-start:url(#TriangleInM);marker-end:url(#TriangleOutM)"
       id="path38819-6"
       sodipodi:type="arc"
       sodipodi:cx="530.88159"
       sodipodi:cy="-25.191275"
       sodipodi:rx="230.58235"
       sodipodi:ry="220.52257"
       sodipodi:start="2.3884777"
       sodipodi:end="0.76667499"
       d="m 362.65746,125.62733 a 230.58235,220.52257 0 0 1 7.68825,-309.11613 230.58235,220.52257 0 0 1 323.30137,2.09639 230.58235,220.52257 0 0 1 3.30485,309.18742"
       transform="matrix(0.71365238,0.70050002,-0.69368184,0.72028155,0,0)"
       sodipodi:open="true"
       inkscape:export-filename="/home/fabio/Dropbox/Gang of for/IUM/Sketch Hands/Two fingers hand rotation.png"
       inkscape:export-xdpi="300"
       inkscape:export-ydpi="300" />
  </g>
</svg>
