<?xml version="1.0" encoding="UTF-8" standalone="no"?>
<!-- Created with Inkscape (http://www.inkscape.org/) -->

<svg
   xmlns:dc="http://purl.org/dc/elements/1.1/"
   xmlns:cc="http://creativecommons.org/ns#"
   xmlns:rdf="http://www.w3.org/1999/02/22-rdf-syntax-ns#"
   xmlns:svg="http://www.w3.org/2000/svg"
   xmlns="http://www.w3.org/2000/svg"
   xmlns:sodipodi="http://sodipodi.sourceforge.net/DTD/sodipodi-0.dtd"
   xmlns:inkscape="http://www.inkscape.org/namespaces/inkscape"
   width="145.35455mm"
   height="148.44427mm"
   viewBox="0 0 515.03582 525.98365"
   id="svg2"
   version="1.1"
   inkscape:version="0.91 r13725"
   sodipodi:docname="rot1.svg"
   inkscape:export-filename="/home/fabio/Dropbox/Gang of for/IUM/Sketch Hands/Full open hand rotation.png"
   inkscape:export-xdpi="300"
   inkscape:export-ydpi="300">
  <defs
     id="defs4">
    <marker
       inkscape:stockid="TriangleOutM"
       orient="auto"
       refY="0"
       refX="0"
       id="marker4437"
       style="overflow:visible"
       inkscape:isstock="true">
      <path
         id="path4318"
         d="m 5.77,0 -8.65,5 0,-10 8.65,5 z"
         style="fill:#0b2abb;fill-opacity:1;fill-rule:evenodd;stroke:#0b2abb;stroke-width:1pt;stroke-opacity:1"
         transform="scale(0.4,0.4)"
         inkscape:connector-curvature="0" />
    </marker>
    <marker
       inkscape:stockid="TriangleInM"
       orient="auto"
       refY="0"
       refX="0"
       id="marker4434"
       style="overflow:visible"
       inkscape:isstock="true">
      <path
         id="path4309"
         d="m 5.77,0 -8.65,5 0,-10 8.65,5 z"
         style="fill:#0b2abb;fill-opacity:1;fill-rule:evenodd;stroke:#0b2abb;stroke-width:1pt;stroke-opacity:1"
         transform="scale(-0.4,-0.4)"
         inkscape:connector-curvature="0" />
    </marker>
    <marker
       inkscape:stockid="Arrow1Lend"
       orient="auto"
       refY="0"
       refX="0"
       id="Arrow1Lend"
       style="overflow:visible"
       inkscape:isstock="true">
      <path
         id="path4176"
         d="M 0,0 5,-5 -12.5,0 5,5 0,0 Z"
         style="fill:#0b2abb;fill-opacity:1;fill-rule:evenodd;stroke:#0b2abb;stroke-width:1pt;stroke-opacity:1"
         transform="matrix(-0.8,0,0,-0.8,-10,0)"
         inkscape:connector-curvature="0" />
    </marker>
    <marker
       inkscape:stockid="Arrow1Lstart"
       orient="auto"
       refY="0"
       refX="0"
       id="marker4429"
       style="overflow:visible"
       inkscape:isstock="true">
      <path
         id="path4173"
         d="M 0,0 5,-5 -12.5,0 5,5 0,0 Z"
         style="fill:#0b2abb;fill-opacity:1;fill-rule:evenodd;stroke:#0b2abb;stroke-width:1pt;stroke-opacity:1"
         transform="matrix(0.8,0,0,0.8,10,0)"
         inkscape:connector-curvature="0" />
    </marker>
    <marker
       inkscape:stockid="TriangleOutS"
       orient="auto"
       refY="0"
       refX="0"
       id="TriangleOutS"
       style="overflow:visible"
       inkscape:isstock="true">
      <path
         id="path4301"
         d="m 5.77,0 -8.65,5 0,-10 8.65,5 z"
         style="fill:#0b2abb;fill-opacity:1;fill-rule:evenodd;stroke:#0b2abb;stroke-width:1pt;stroke-opacity:1"
         transform="scale(0.2,0.2)"
         inkscape:connector-curvature="0" />
    </marker>
    <marker
       inkscape:stockid="TriangleInS"
       orient="auto"
       refY="0"
       refX="0"
       id="TriangleInS"
       style="overflow:visible"
       inkscape:isstock="true">
      <path
         id="path4292"
         d="m 5.77,0 -8.65,5 0,-10 8.65,5 z"
         style="fill:#0b2abb;fill-opacity:1;fill-rule:evenodd;stroke:#0b2abb;stroke-width:1pt;stroke-opacity:1"
         transform="scale(-0.2,-0.2)"
         inkscape:connector-curvature="0" />
    </marker>
    <marker
       inkscape:stockid="TriangleInM"
       orient="auto"
       refY="0"
       refX="0"
       id="TriangleInM"
       style="overflow:visible"
       inkscape:isstock="true">
      <path
         id="path4289"
         d="m 5.77,0 -8.65,5 0,-10 8.65,5 z"
         style="fill:#0b2abb;fill-opacity:1;fill-rule:evenodd;stroke:#0b2abb;stroke-width:1pt;stroke-opacity:1"
         transform="scale(-0.4,-0.4)"
         inkscape:connector-curvature="0" />
    </marker>
    <marker
       inkscape:stockid="TriangleOutM"
       orient="auto"
       refY="0"
       refX="0"
       id="TriangleOutM"
       style="overflow:visible"
       inkscape:isstock="true">
      <path
         id="path4298"
         d="m 5.77,0 -8.65,5 0,-10 8.65,5 z"
         style="fill:#0b2abb;fill-opacity:1;fill-rule:evenodd;stroke:#0b2abb;stroke-width:1pt;stroke-opacity:1"
         transform="scale(0.4,0.4)"
         inkscape:connector-curvature="0" />
    </marker>
    <marker
       inkscape:stockid="Arrow1Mend"
       orient="auto"
       refY="0"
       refX="0"
       id="Arrow1Mend"
       style="overflow:visible"
       inkscape:isstock="true">
      <path
         id="path4162"
         d="M 0,0 5,-5 -12.5,0 5,5 0,0 Z"
         style="fill:#0b2abb;fill-opacity:1;fill-rule:evenodd;stroke:#0b2abb;stroke-width:1pt;stroke-opacity:1"
         transform="matrix(-0.4,0,0,-0.4,-4,0)"
         inkscape:connector-curvature="0" />
    </marker>
    <marker
       inkscape:stockid="Arrow1Mstart"
       orient="auto"
       refY="0"
       refX="0"
       id="Arrow1Mstart"
       style="overflow:visible"
       inkscape:isstock="true">
      <path
         id="path4159"
         d="M 0,0 5,-5 -12.5,0 5,5 0,0 Z"
         style="fill:#0b2abb;fill-opacity:1;fill-rule:evenodd;stroke:#0b2abb;stroke-width:1pt;stroke-opacity:1"
         transform="matrix(0.4,0,0,0.4,4,0)"
         inkscape:connector-curvature="0" />
    </marker>
    <marker
       inkscape:stockid="DotM"
       orient="auto"
       refY="0"
       refX="0"
       id="DotM"
       style="overflow:visible"
       inkscape:isstock="true">
      <path
         id="path4217"
         d="m -2.5,-1 c 0,2.76 -2.24,5 -5,5 -2.76,0 -5,-2.24 -5,-5 0,-2.76 2.24,-5 5,-5 2.76,0 5,2.24 5,5 z"
         style="fill:#4566ff;fill-opacity:1;fill-rule:evenodd;stroke:#000000;stroke-width:1pt;stroke-opacity:1"
         transform="matrix(0.4,0,0,0.4,2.96,0.4)"
         inkscape:connector-curvature="0" />
    </marker>
    <marker
       inkscape:stockid="Arrow2Lend"
       orient="auto"
       refY="0"
       refX="0"
       id="Arrow2Lend"
       style="overflow:visible"
       inkscape:isstock="true">
      <path
         id="path4174"
         style="fill:#000000;fill-opacity:1;fill-rule:evenodd;stroke:#000000;stroke-width:0.625;stroke-linejoin:round;stroke-opacity:1"
         d="M 8.7185878,4.0337352 -2.2072895,0.01601326 8.7185884,-4.0017078 c -1.7454984,2.3720609 -1.7354408,5.6174519 -6e-7,8.035443 z"
         transform="matrix(-1.1,0,0,-1.1,-1.1,0)"
         inkscape:connector-curvature="0" />
    </marker>
    <marker
       inkscape:stockid="Arrow2Lstart"
       orient="auto"
       refY="0"
       refX="0"
       id="Arrow2Lstart"
       style="overflow:visible"
       inkscape:isstock="true">
      <path
         id="path4171"
         style="fill:#000000;fill-opacity:1;fill-rule:evenodd;stroke:#000000;stroke-width:0.625;stroke-linejoin:round;stroke-opacity:1"
         d="M 8.7185878,4.0337352 -2.2072895,0.01601326 8.7185884,-4.0017078 c -1.7454984,2.3720609 -1.7354408,5.6174519 -6e-7,8.035443 z"
         transform="matrix(1.1,0,0,1.1,1.1,0)"
         inkscape:connector-curvature="0" />
    </marker>
    <marker
       inkscape:stockid="Arrow1Lstart"
       orient="auto"
       refY="0"
       refX="0"
       id="Arrow1Lstart"
       style="overflow:visible"
       inkscape:isstock="true">
      <path
         id="path4153"
         d="M 0,0 5,-5 -12.5,0 5,5 0,0 Z"
         style="fill:#000000;fill-opacity:1;fill-rule:evenodd;stroke:#000000;stroke-width:1pt;stroke-opacity:1"
         transform="matrix(0.8,0,0,0.8,10,0)"
         inkscape:connector-curvature="0" />
    </marker>
    <marker
       inkscape:stockid="TriangleInS"
       orient="auto"
       refY="0"
       refX="0"
       id="TriangleInS-9"
       style="overflow:visible"
       inkscape:isstock="true">
      <path
         inkscape:connector-curvature="0"
         id="path4292-8"
         d="m 5.77,0 -8.65,5 0,-10 8.65,5 z"
         style="fill:#0b2abb;fill-opacity:1;fill-rule:evenodd;stroke:#0b2abb;stroke-width:1pt;stroke-opacity:1"
         transform="scale(-0.2,-0.2)" />
    </marker>
    <marker
       inkscape:stockid="TriangleOutS"
       orient="auto"
       refY="0"
       refX="0"
       id="TriangleOutS-8"
       style="overflow:visible"
       inkscape:isstock="true">
      <path
         inkscape:connector-curvature="0"
         id="path4301-0"
         d="m 5.77,0 -8.65,5 0,-10 8.65,5 z"
         style="fill:#0b2abb;fill-opacity:1;fill-rule:evenodd;stroke:#0b2abb;stroke-width:1pt;stroke-opacity:1"
         transform="scale(0.2,0.2)" />
    </marker>
  </defs>
  <sodipodi:namedview
     id="base"
     pagecolor="#ffffff"
     bordercolor="#666666"
     borderopacity="1.0"
     inkscape:pageopacity="0.0"
     inkscape:pageshadow="2"
     inkscape:zoom="0.98994949"
     inkscape:cx="75.595594"
     inkscape:cy="215.07264"
     inkscape:document-units="px"
     inkscape:current-layer="layer1"
     showgrid="false"
     inkscape:window-width="1920"
     inkscape:window-height="1011"
     inkscape:window-x="0"
     inkscape:window-y="40"
     inkscape:window-maximized="1"
     fit-margin-top="0"
     fit-margin-left="0"
     fit-margin-right="0"
     fit-margin-bottom="0" />
  <metadata
     id="metadata7">
    <rdf:RDF>
      <cc:Work
         rdf:about="">
        <dc:format>image/svg+xml</dc:format>
        <dc:type
           rdf:resource="http://purl.org/dc/dcmitype/StillImage" />
        <dc:title></dc:title>
      </cc:Work>
    </rdf:RDF>
  </metadata>
  <g
     inkscape:label="Layer 1"
     inkscape:groupmode="layer"
     id="layer1"
     transform="translate(-133.27181,-77.964786)">
    <path
       style="fill:#4566ff;fill-opacity:1;fill-rule:evenodd;stroke:#000000;stroke-width:2.77183199;stroke-linecap:butt;stroke-linejoin:miter;stroke-miterlimit:4;stroke-dasharray:8.31549589, 8.31549589;stroke-dashoffset:0;stroke-opacity:1;marker-end:url(#DotM)"
       d="M 216.48799,544.51489 398.8939,357.42038"
       id="path23021"
       inkscape:connector-curvature="0"
       sodipodi:nodetypes="cc"
       inkscape:export-xdpi="300"
       inkscape:export-ydpi="300" />
    <path
       style="opacity:0.85;fill:#ffffff;fill-opacity:1;fill-rule:evenodd;stroke:#000000;stroke-width:5;stroke-linecap:round;stroke-linejoin:round;stroke-miterlimit:4;stroke-dasharray:none;stroke-opacity:1"
       d="m 169.43832,508.56398 c 25.56998,-11.425 42.51916,-72.41958 52.85714,-171.42857 1.62637,-55.53081 -13.92213,-78.89419 -6.73315,-119.22442 -0.20228,-16.08464 17.53661,-11.09858 22.2549,17.95866 1.89527,18.45588 12.3541,39.97538 17.09029,57.81689 6.76874,25.49824 1.847,25.02102 1.847,25.02102 7.80121,-56.73205 33.54189,-97.86715 31.58446,-180.2538 11.3681,-34.57951 32.69703,-0.61784 31.16245,34.37672 4.63511,79.59804 -6.24661,119.39517 -1.80855,146.64212 40.82215,-154.29732 49.52748,-217.75353 55.77046,-223.303471 30.87669,-11.45903 22.67296,59.192161 20.33612,79.364411 -11.51515,90.5506 0.90442,124.19494 -20.0754,164.45901 34.50402,-75.93086 42.10431,-109.55951 56.13645,-150.16874 14.03214,-40.60923 19.00789,-68.48221 30.62134,-71.95999 24.68311,14.39656 17.71181,39.26058 3.00072,92.26182 -7.74354,57.747 -20.25509,98.79275 -20.87791,137.41072 -12.78725,85.45109 12.35071,85.54729 66.97726,79.70058 3.69492,2.78552 70.39862,-23.10209 74.43412,-6.52054 4.98456,20.48114 -7.43273,26.06683 -33.81266,41.00929 -32.44537,11.40792 -30.24142,8.04289 -84.81436,25.72661 -78.10452,18.46568 -109.78746,78.56208 -139.52211,113.96882"
       id="path3347-4"
       inkscape:connector-curvature="0"
       sodipodi:nodetypes="ccccsccccccczccccsccc"
       inkscape:export-xdpi="300"
       inkscape:export-ydpi="300" />
    <circle
       style="opacity:0.85;fill:none;fill-opacity:1;stroke:#0b2abb;stroke-width:12.56900024;stroke-linecap:butt;stroke-linejoin:miter;stroke-miterlimit:4;stroke-dasharray:none;stroke-dashoffset:0;stroke-opacity:1"
       id="path44393"
       cx="0"
       cy="0"
       r="0" />
    <path
       style="opacity:0.85;fill:none;stroke:#0b2abb;stroke-width:11.86826801;stroke-linecap:butt;stroke-linejoin:miter;stroke-miterlimit:4;stroke-dasharray:none;stroke-dashoffset:0;stroke-opacity:1;marker-start:url(#marker4434);marker-end:url(#marker4437)"
       id="path38819-6"
       sodipodi:type="arc"
       sodipodi:cx="530.88159"
       sodipodi:cy="-25.191275"
       sodipodi:rx="230.58235"
       sodipodi:ry="220.52257"
       sodipodi:start="2.3751435"
       sodipodi:end="0.72559819"
       d="m 364.77514,127.75914 a 230.58235,220.52257 0 0 1 1.87412,-307.74086 230.58235,220.52257 0 0 1 321.71769,-6.28542 230.58235,220.52257 0 0 1 15.0139,307.41091"
       transform="matrix(0.75901228,0.70585688,-0.7377724,0.72578969,-18.467734,-44.200238)"
       inkscape:export-xdpi="300"
       inkscape:export-ydpi="300"
       sodipodi:open="true" />
  </g>
</svg>
