<?xml version="1.0" encoding="UTF-8" standalone="no"?>
<!-- Created with Inkscape (http://www.inkscape.org/) -->

<svg
   xmlns:dc="http://purl.org/dc/elements/1.1/"
   xmlns:cc="http://creativecommons.org/ns#"
   xmlns:rdf="http://www.w3.org/1999/02/22-rdf-syntax-ns#"
   xmlns:svg="http://www.w3.org/2000/svg"
   xmlns="http://www.w3.org/2000/svg"
   xmlns:sodipodi="http://sodipodi.sourceforge.net/DTD/sodipodi-0.dtd"
   xmlns:inkscape="http://www.inkscape.org/namespaces/inkscape"
   width="151.939mm"
   height="151.42799mm"
   viewBox="0 0 538.36652 536.55588"
   id="svg2"
   version="1.1"
   inkscape:version="0.91 r13725"
   sodipodi:docname="rot4.svg"
   inkscape:export-filename="/home/fabio/Dropbox/Gang of for/IUM/Sketch Hands/Two fingers hand rotation.png"
   inkscape:export-xdpi="300"
   inkscape:export-ydpi="300">
  <defs
     id="defs4">
    <marker
       inkscape:stockid="TriangleOutS"
       orient="auto"
       refY="0"
       refX="0"
       id="TriangleOutS"
       style="overflow:visible"
       inkscape:isstock="true">
      <path
         id="path4301"
         d="m 5.77,0 -8.65,5 0,-10 8.65,5 z"
         style="fill:#0b2abb;fill-opacity:1;fill-rule:evenodd;stroke:#0b2abb;stroke-width:1pt;stroke-opacity:1"
         transform="scale(0.2,0.2)"
         inkscape:connector-curvature="0" />
    </marker>
    <marker
       inkscape:stockid="TriangleInS"
       orient="auto"
       refY="0"
       refX="0"
       id="TriangleInS"
       style="overflow:visible"
       inkscape:isstock="true">
      <path
         id="path4292"
         d="m 5.77,0 -8.65,5 0,-10 8.65,5 z"
         style="fill:#0b2abb;fill-opacity:1;fill-rule:evenodd;stroke:#0b2abb;stroke-width:1pt;stroke-opacity:1"
         transform="scale(-0.2,-0.2)"
         inkscape:connector-curvature="0" />
    </marker>
    <marker
       inkscape:stockid="TriangleInM"
       orient="auto"
       refY="0"
       refX="0"
       id="TriangleInM"
       style="overflow:visible"
       inkscape:isstock="true">
      <path
         id="path4289"
         d="m 5.77,0 -8.65,5 0,-10 8.65,5 z"
         style="fill:#0b2abb;fill-opacity:1;fill-rule:evenodd;stroke:#0b2abb;stroke-width:1pt;stroke-opacity:1"
         transform="scale(-0.4,-0.4)"
         inkscape:connector-curvature="0" />
    </marker>
    <marker
       inkscape:stockid="TriangleOutM"
       orient="auto"
       refY="0"
       refX="0"
       id="TriangleOutM"
       style="overflow:visible"
       inkscape:isstock="true">
      <path
         id="path4298"
         d="m 5.77,0 -8.65,5 0,-10 8.65,5 z"
         style="fill:#0b2abb;fill-opacity:1;fill-rule:evenodd;stroke:#0b2abb;stroke-width:1pt;stroke-opacity:1"
         transform="scale(0.4,0.4)"
         inkscape:connector-curvature="0" />
    </marker>
    <marker
       inkscape:stockid="Arrow1Mend"
       orient="auto"
       refY="0"
       refX="0"
       id="Arrow1Mend"
       style="overflow:visible"
       inkscape:isstock="true">
      <path
         id="path4162"
         d="M 0,0 5,-5 -12.5,0 5,5 0,0 Z"
         style="fill:#0b2abb;fill-opacity:1;fill-rule:evenodd;stroke:#0b2abb;stroke-width:1pt;stroke-opacity:1"
         transform="matrix(-0.4,0,0,-0.4,-4,0)"
         inkscape:connector-curvature="0" />
    </marker>
    <marker
       inkscape:stockid="Arrow1Mstart"
       orient="auto"
       refY="0"
       refX="0"
       id="Arrow1Mstart"
       style="overflow:visible"
       inkscape:isstock="true">
      <path
         id="path4159"
         d="M 0,0 5,-5 -12.5,0 5,5 0,0 Z"
         style="fill:#0b2abb;fill-opacity:1;fill-rule:evenodd;stroke:#0b2abb;stroke-width:1pt;stroke-opacity:1"
         transform="matrix(0.4,0,0,0.4,4,0)"
         inkscape:connector-curvature="0" />
    </marker>
    <marker
       inkscape:stockid="DotM"
       orient="auto"
       refY="0"
       refX="0"
       id="DotM"
       style="overflow:visible"
       inkscape:isstock="true">
      <path
         id="path4217"
         d="m -2.5,-1 c 0,2.76 -2.24,5 -5,5 -2.76,0 -5,-2.24 -5,-5 0,-2.76 2.24,-5 5,-5 2.76,0 5,2.24 5,5 z"
         style="fill:#4566ff;fill-opacity:1;fill-rule:evenodd;stroke:#000000;stroke-width:1pt;stroke-opacity:1"
         transform="matrix(0.4,0,0,0.4,2.96,0.4)"
         inkscape:connector-curvature="0" />
    </marker>
    <marker
       inkscape:stockid="Arrow2Lend"
       orient="auto"
       refY="0"
       refX="0"
       id="Arrow2Lend"
       style="overflow:visible"
       inkscape:isstock="true">
      <path
         id="path4174"
         style="fill:#000000;fill-opacity:1;fill-rule:evenodd;stroke:#000000;stroke-width:0.625;stroke-linejoin:round;stroke-opacity:1"
         d="M 8.7185878,4.0337352 -2.2072895,0.01601326 8.7185884,-4.0017078 c -1.7454984,2.3720609 -1.7354408,5.6174519 -6e-7,8.035443 z"
         transform="matrix(-1.1,0,0,-1.1,-1.1,0)"
         inkscape:connector-curvature="0" />
    </marker>
    <marker
       inkscape:stockid="Arrow2Lstart"
       orient="auto"
       refY="0"
       refX="0"
       id="Arrow2Lstart"
       style="overflow:visible"
       inkscape:isstock="true">
      <path
         id="path4171"
         style="fill:#000000;fill-opacity:1;fill-rule:evenodd;stroke:#000000;stroke-width:0.625;stroke-linejoin:round;stroke-opacity:1"
         d="M 8.7185878,4.0337352 -2.2072895,0.01601326 8.7185884,-4.0017078 c -1.7454984,2.3720609 -1.7354408,5.6174519 -6e-7,8.035443 z"
         transform="matrix(1.1,0,0,1.1,1.1,0)"
         inkscape:connector-curvature="0" />
    </marker>
    <marker
       inkscape:stockid="Arrow1Lstart"
       orient="auto"
       refY="0"
       refX="0"
       id="Arrow1Lstart"
       style="overflow:visible"
       inkscape:isstock="true">
      <path
         id="path4153"
         d="M 0,0 5,-5 -12.5,0 5,5 0,0 Z"
         style="fill:#000000;fill-opacity:1;fill-rule:evenodd;stroke:#000000;stroke-width:1pt;stroke-opacity:1"
         transform="matrix(0.8,0,0,0.8,10,0)"
         inkscape:connector-curvature="0" />
    </marker>
    <marker
       inkscape:stockid="TriangleInS"
       orient="auto"
       refY="0"
       refX="0"
       id="TriangleInS-9"
       style="overflow:visible"
       inkscape:isstock="true">
      <path
         inkscape:connector-curvature="0"
         id="path4292-8"
         d="m 5.77,0 -8.65,5 0,-10 8.65,5 z"
         style="fill:#0b2abb;fill-opacity:1;fill-rule:evenodd;stroke:#0b2abb;stroke-width:1pt;stroke-opacity:1"
         transform="scale(-0.2,-0.2)" />
    </marker>
    <marker
       inkscape:stockid="TriangleOutS"
       orient="auto"
       refY="0"
       refX="0"
       id="TriangleOutS-8"
       style="overflow:visible"
       inkscape:isstock="true">
      <path
         inkscape:connector-curvature="0"
         id="path4301-0"
         d="m 5.77,0 -8.65,5 0,-10 8.65,5 z"
         style="fill:#0b2abb;fill-opacity:1;fill-rule:evenodd;stroke:#0b2abb;stroke-width:1pt;stroke-opacity:1"
         transform="scale(0.2,0.2)" />
    </marker>
    <marker
       inkscape:isstock="true"
       style="overflow:visible"
       id="marker44346H1"
       refX="0"
       refY="0"
       orient="auto"
       inkscape:stockid="marker44346H1">
      <path
         inkscape:connector-curvature="0"
         transform="scale(-0.4,-0.4)"
         style="fill:#ffffff;fill-opacity:1;fill-rule:evenodd;stroke:#ffffff;stroke-width:1pt;stroke-opacity:1"
         d="m 5.77,0 -8.65,5 0,-10 8.65,5 z"
         id="path4071" />
    </marker>
    <marker
       inkscape:isstock="true"
       style="overflow:visible"
       id="marker4437SQ5"
       refX="0"
       refY="0"
       orient="auto"
       inkscape:stockid="marker4437SQ5">
      <path
         inkscape:connector-curvature="0"
         transform="scale(0.4,0.4)"
         style="fill:#ffffff;fill-opacity:1;fill-rule:evenodd;stroke:#ffffff;stroke-width:1pt;stroke-opacity:1"
         d="m 5.77,0 -8.65,5 0,-10 8.65,5 z"
         id="path4074" />
    </marker>
    <marker
       inkscape:isstock="true"
       style="overflow:visible"
       id="marker4434"
       refX="0"
       refY="0"
       orient="auto"
       inkscape:stockid="TriangleInM">
      <path
         inkscape:connector-curvature="0"
         transform="scale(-0.4,-0.4)"
         style="fill:#0b2abb;fill-opacity:1;fill-rule:evenodd;stroke:#0b2abb;stroke-width:1pt;stroke-opacity:1"
         d="m 5.77,0 -8.65,5 0,-10 8.65,5 z"
         id="path4309" />
    </marker>
    <marker
       inkscape:isstock="true"
       style="overflow:visible"
       id="marker4437"
       refX="0"
       refY="0"
       orient="auto"
       inkscape:stockid="TriangleOutM">
      <path
         inkscape:connector-curvature="0"
         transform="scale(0.4,0.4)"
         style="fill:#0b2abb;fill-opacity:1;fill-rule:evenodd;stroke:#0b2abb;stroke-width:1pt;stroke-opacity:1"
         d="m 5.77,0 -8.65,5 0,-10 8.65,5 z"
         id="path4318" />
    </marker>
    <marker
       inkscape:stockid="DotM"
       orient="auto"
       refY="0"
       refX="0"
       id="DotM-1"
       style="overflow:visible"
       inkscape:isstock="true">
      <path
         inkscape:connector-curvature="0"
         id="path4217-4"
         d="m -2.5,-1 c 0,2.76 -2.24,5 -5,5 -2.76,0 -5,-2.24 -5,-5 0,-2.76 2.24,-5 5,-5 2.76,0 5,2.24 5,5 z"
         style="fill:#4566ff;fill-opacity:1;fill-rule:evenodd;stroke:#000000;stroke-width:1pt;stroke-opacity:1"
         transform="matrix(0.4,0,0,0.4,2.96,0.4)" />
    </marker>
  </defs>
  <sodipodi:namedview
     id="base"
     pagecolor="#ffffff"
     bordercolor="#666666"
     borderopacity="1.0"
     inkscape:pageopacity="0.0"
     inkscape:pageshadow="2"
     inkscape:zoom="1.0795313"
     inkscape:cx="67.587256"
     inkscape:cy="265.6978"
     inkscape:document-units="px"
     inkscape:current-layer="layer1"
     showgrid="false"
     inkscape:window-width="1920"
     inkscape:window-height="1011"
     inkscape:window-x="0"
     inkscape:window-y="40"
     inkscape:window-maximized="1"
     inkscape:snap-nodes="false"
     inkscape:snap-others="false"
     inkscape:snap-global="false"
     fit-margin-top="4"
     fit-margin-left="0"
     fit-margin-right="0"
     fit-margin-bottom="4" />
  <metadata
     id="metadata7">
    <rdf:RDF>
      <cc:Work
         rdf:about="">
        <dc:format>image/svg+xml</dc:format>
        <dc:type
           rdf:resource="http://purl.org/dc/dcmitype/StillImage" />
        <dc:title></dc:title>
      </cc:Work>
    </rdf:RDF>
  </metadata>
  <g
     inkscape:label="Layer 1"
     inkscape:groupmode="layer"
     id="layer1"
     transform="translate(-106.90173,-98.251198)">
    <path
       style="fill:#4566ff;fill-opacity:1;fill-rule:evenodd;stroke:#000000;stroke-width:1.61199939;stroke-linecap:butt;stroke-linejoin:miter;stroke-miterlimit:4;stroke-dasharray:4.8359982, 4.8359982;stroke-dashoffset:0;stroke-opacity:1;marker-end:url(#DotM-1)"
       d="M 397.7822,331.8378 516.09086,235.49338"
       id="path23021"
       inkscape:connector-curvature="0"
       sodipodi:nodetypes="cc"
       inkscape:export-filename="/home/fabio/Dropbox/Gang of for/IUM/Sketch Hands/Two fingers hand rotation.png"
       inkscape:export-xdpi="300"
       inkscape:export-ydpi="300" />
    <path
       style="opacity:0.85;fill:#ffffff;fill-opacity:1;fill-rule:evenodd;stroke:#000000;stroke-width:5;stroke-linecap:round;stroke-linejoin:round;stroke-miterlimit:4;stroke-dasharray:none;stroke-opacity:1"
       d="m 518.5918,224.97852 c -2.34984,-0.10872 -5.03689,0.34622 -8.03907,1.51953 -38.88757,12.56915 -47.84656,24.96132 -62.70117,32.74804 -56.47975,30.79499 -91.78899,85.59616 -96.38281,92.03125 7.35062,-13.91595 1.45584,-7.9514 14.24609,-22.16796 -6.2917,-7.9643 -60.68173,-20.08943 -80.72461,22.41406 3.51994,-10.63933 8.39983,-15.34895 10.3418,-17.71485 0.86091,-1.04883 -28.92948,-11.75688 -49.1582,6.20118 0.1,-0.0178 0.18062,-0.0349 0.28125,-0.0527 l -7.00586,7.70508 c 2.06195,-2.99783 4.32701,-5.52387 6.72461,-7.65234 -36.29345,6.44648 -31.39356,10.92319 -51.625,67.0332 -13.082,62.90538 -28.02637,100.56201 -58.33399,113.20312 l 141.09165,79.73766 c 96.31613,-119.67273 50.15075,-17.09928 148.2723,-122.46111 15.78038,-16.94479 13.2867,-51.38282 -12.19987,-93.16844 0,0 -15.49956,30.10009 -19.46061,54.28382 16.09531,-62.7857 38.85552,-115.04807 129.49185,-187.13997 10.70784,-8.92251 7.87073,-25.93249 -4.81836,-26.51953 z"
       id="path3347-4"
       inkscape:connector-curvature="0"
       sodipodi:nodetypes="ccccccscccccccscccsc" />
    <circle
       style="opacity:0.85;fill:none;fill-opacity:1;stroke:#0b2abb;stroke-width:12.56900024;stroke-linecap:butt;stroke-linejoin:miter;stroke-miterlimit:4;stroke-dasharray:none;stroke-dashoffset:0;stroke-opacity:1"
       id="path44393"
       cx="0"
       cy="0"
       r="0"
       inkscape:export-filename="/home/fabio/Dropbox/Gang of for/IUM/Sketch Hands/Two fingers hand rotation.png"
       inkscape:export-xdpi="300"
       inkscape:export-ydpi="300" />
    <path
       sodipodi:open="true"
       inkscape:export-ydpi="300"
       inkscape:export-xdpi="300"
       transform="matrix(0.7104922,0.70370508,-0.69043537,0.72339408,0,0)"
       d="m 472.2681,-134.30224 a 89.71904,85.826515 0 0 1 -0.6248,-118.42832 89.71904,85.826515 0 0 1 123.62693,-6.27838 89.71904,85.826515 0 0 1 12.48634,117.82593"
       sodipodi:end="0.66037239"
       sodipodi:start="2.3751435"
       sodipodi:ry="85.826515"
       sodipodi:rx="89.71904"
       sodipodi:cy="-193.82994"
       sodipodi:cx="536.89972"
       sodipodi:type="arc"
       id="path38819-6-4"
       style="opacity:0.85;fill:none;stroke:#0b2abb;stroke-width:8.6187381;stroke-linecap:butt;stroke-linejoin:miter;stroke-miterlimit:4;stroke-dasharray:none;stroke-dashoffset:0;stroke-opacity:1;marker-start:url(#marker4434);marker-end:url(#marker4437)" />
  </g>
</svg>
