<?xml version="1.0" encoding="UTF-8" standalone="no"?>
<!-- Created with Inkscape (http://www.inkscape.org/) -->

<svg
   xmlns:dc="http://purl.org/dc/elements/1.1/"
   xmlns:cc="http://creativecommons.org/ns#"
   xmlns:rdf="http://www.w3.org/1999/02/22-rdf-syntax-ns#"
   xmlns:svg="http://www.w3.org/2000/svg"
   xmlns="http://www.w3.org/2000/svg"
   xmlns:sodipodi="http://sodipodi.sourceforge.net/DTD/sodipodi-0.dtd"
   xmlns:inkscape="http://www.inkscape.org/namespaces/inkscape"
   width="375.09375"
   height="375.09375"
   id="svg2"
   version="1.1"
   inkscape:version="0.91 r13725"
   sodipodi:docname="r2.svg">
  <defs
     id="defs4" />
  <sodipodi:namedview
     id="base"
     pagecolor="#ffffff"
     bordercolor="#666666"
     borderopacity="1.0"
     inkscape:pageopacity="0.0"
     inkscape:pageshadow="2"
     inkscape:zoom="0.98994949"
     inkscape:cx="-29.568448"
     inkscape:cy="137.86608"
     inkscape:document-units="px"
     inkscape:current-layer="layer1"
     showgrid="false"
     inkscape:window-width="1920"
     inkscape:window-height="1011"
     inkscape:window-x="0"
     inkscape:window-y="40"
     inkscape:window-maximized="1"
     fit-margin-top="0"
     fit-margin-left="0"
     fit-margin-right="0"
     fit-margin-bottom="0" />
  <metadata
     id="metadata7">
    <rdf:RDF>
      <cc:Work
         rdf:about="">
        <dc:format>image/svg+xml</dc:format>
        <dc:type
           rdf:resource="http://purl.org/dc/dcmitype/StillImage" />
        <dc:title></dc:title>
      </cc:Work>
    </rdf:RDF>
  </metadata>
  <g
     inkscape:label="Layer 1"
     inkscape:groupmode="layer"
     id="layer1"
     transform="translate(-91.78125,-120.8125)">
    <path
       style="fill:none;stroke:#0b2abb;stroke-width:2;stroke-miterlimit:4;stroke-dasharray:none;stroke-opacity:1"
       d="m 279.3125,121.8125 c -39.75369,0 -76.61118,12.43201 -106.875,33.625 -4.14799,12.96386 -15.27754,22.80703 -28.96875,25.09375 -31.42768,33.39268 -50.6875,78.36616 -50.6875,127.84375 0,103.03146 83.49978,186.53125 186.53125,186.53125 46.59798,0 89.211,-17.06555 121.90625,-45.3125 2.62745,-14.07756 13.26357,-25.34077 27,-28.875 0.004,-0.005 0.0274,0.005 0.0312,0 23.61821,-31.25362 37.625,-70.15045 37.625,-112.34375 0,-103.03147 -83.53103,-186.5625 -186.5625,-186.5625 z"
       id="path2985"
       inkscape:connector-curvature="0" />
  </g>
</svg>
